<?xml version="1.0" standalone="no"?>
<!DOCTYPE svg PUBLIC "-//W3C//DTD SVG 20010904//EN"
 "http://www.w3.org/TR/2001/REC-SVG-20010904/DTD/svg10.dtd">
<svg version="1.0" xmlns="http://www.w3.org/2000/svg"
 width="680.000000pt" height="680.000000pt" viewBox="0 0 680.000000 680.000000"
 preserveAspectRatio="xMidYMid meet">
<metadata>
Created by potrace 1.11, written by Peter Selinger 2001-2013
</metadata>
<g transform="translate(0.000000,680.000000) scale(0.100000,-0.100000)"
fill="#000000" stroke="none">
<path d="M4720 4876 c0 -10 -9 -16 -23 -16 -25 0 -57 -28 -57 -48 0 -18 -100
-9 -114 10 -21 29 -52 -8 -80 -94 -8 -25 -34 -11 -39 20 l-4 27 -2 -27 c0 -17
-7 -28 -15 -28 -8 0 -33 -21 -55 -47 -31 -37 -43 -45 -52 -36 -10 10 -15 8
-26 -5 -11 -12 -16 -14 -19 -4 -14 32 -46 2 -58 -55 -7 -29 -46 -77 -46 -57 0
5 -8 -7 -17 -26 -21 -43 -33 -55 -60 -64 -11 -4 -26 -20 -33 -35 -6 -16 -24
-42 -39 -57 -15 -16 -42 -59 -60 -96 -17 -37 -36 -70 -41 -73 -6 -3 -10 -23
-10 -44 0 -30 5 -40 25 -51 21 -11 31 -10 86 15 34 15 73 28 86 29 24 1 54 34
175 194 18 24 56 72 83 107 28 35 66 89 85 121 44 72 51 52 22 -63 -33 -129
-45 -191 -46 -235 -1 -54 20 -61 40 -13 8 20 24 46 34 58 11 11 22 29 26 39 3
10 9 18 15 18 5 0 15 15 23 34 8 18 23 44 34 57 11 13 49 63 84 110 35 48 89
120 121 161 31 41 57 80 57 86 0 7 4 12 9 12 13 0 55 60 47 67 -3 3 -12 0 -21
-7 -12 -10 -16 -9 -21 3 -3 10 -17 15 -37 14 -18 -1 -42 2 -54 6 -18 6 -23 5
-23 -7z"/>
<path d="M1950 4835 c0 -8 10 -23 22 -35 l22 -20 -28 0 c-18 0 -26 -4 -23 -12
2 -7 12 -12 21 -12 9 1 16 -3 16 -8 0 -15 32 -54 157 -185 63 -67 122 -131
132 -143 9 -12 35 -45 59 -74 23 -29 42 -59 42 -65 0 -15 26 -42 33 -35 6 6
20 -50 21 -85 1 -13 7 -26 14 -28 8 -3 12 9 12 44 0 50 -15 109 -46 178 -9 22
-18 47 -20 55 -1 8 -7 29 -12 47 -8 24 -7 31 2 27 13 -5 153 -155 175 -188 8
-12 55 -71 103 -132 73 -91 96 -113 127 -123 78 -23 154 -8 165 32 8 32 -14
118 -40 157 -13 19 -24 38 -24 42 0 10 -59 108 -77 128 -7 8 -34 41 -59 73
-30 39 -55 60 -74 64 -16 3 -30 13 -33 23 -3 10 -22 29 -43 43 -22 13 -66 50
-99 82 -32 31 -61 52 -63 46 -2 -6 -8 -9 -13 -5 -15 9 -10 24 8 24 14 0 15 2
4 13 -10 10 -15 9 -23 -4 -15 -22 -78 -2 -79 26 -1 17 -2 16 -9 -5 -4 -14 -8
-20 -9 -13 -4 47 -78 49 -88 2 -6 -34 -23 -29 -23 7 0 13 -4 24 -8 24 -5 0
-14 11 -20 25 -7 15 -20 25 -32 25 -26 0 -26 -20 0 -27 34 -9 23 -26 -12 -20
-18 4 -57 10 -86 15 -29 5 -58 14 -64 20 -16 16 -28 15 -28 -3z"/>
<path d="M4412 3991 c-24 -54 -76 -125 -140 -188 -53 -53 -69 -63 -88 -59 -14
4 -24 2 -24 -4 0 -5 -6 -10 -13 -10 -7 0 -32 -22 -56 -50 -24 -27 -48 -47 -53
-44 -5 3 -18 -3 -29 -15 -11 -12 -27 -21 -37 -21 -20 -1 -52 -23 -52 -37 0
-11 -43 -33 -65 -33 -8 0 -19 -8 -24 -19 -6 -10 -24 -21 -41 -24 -16 -4 -30
-12 -30 -20 0 -7 -8 -20 -19 -29 -13 -11 -20 -36 -25 -89 -9 -95 -19 -101
-171 -105 -60 -2 -149 -5 -197 -7 -50 -2 -91 0 -97 6 -7 7 -15 6 -26 -3 -18
-15 -31 -2 -66 68 -21 43 -36 51 -57 30 -9 -9 -16 -7 -32 10 -12 12 -27 22
-36 22 -8 0 -19 11 -24 25 -8 20 -16 25 -46 25 -32 0 -45 9 -106 70 -38 38
-73 70 -78 70 -5 0 -11 8 -14 18 -9 27 -114 77 -172 81 -6 1 -16 12 -22 26 -6
14 -19 25 -28 25 -9 0 -36 19 -60 43 -66 64 -79 74 -92 69 -7 -2 -12 2 -12 8
0 6 -12 10 -27 8 -31 -3 -35 -20 -16 -58 7 -14 13 -33 13 -42 0 -9 5 -20 10
-23 6 -4 10 -12 9 -18 -4 -30 4 -39 47 -58 26 -11 44 -22 41 -26 -6 -5 17 -25
103 -91 19 -15 47 -39 63 -54 16 -16 32 -28 37 -28 5 0 17 -11 28 -25 11 -14
24 -25 29 -25 5 0 19 -13 31 -30 12 -16 37 -37 55 -46 17 -9 36 -23 40 -30 4
-7 31 -20 59 -29 61 -18 131 -81 102 -92 -10 -4 -74 1 -143 10 -84 11 -218 18
-402 20 -263 3 -277 5 -325 27 -85 39 -90 41 -100 38 -20 -6 -74 21 -68 35 6
16 -30 42 -87 62 -31 11 -39 11 -39 2 0 -7 4 -17 10 -23 5 -5 6 -15 1 -22 -7
-11 -11 -10 -24 2 -17 17 -47 22 -47 7 0 -6 -15 -7 -34 -4 -18 3 -42 1 -52 -5
-22 -12 -115 8 -277 58 -16 5 -35 6 -43 3 -8 -3 -14 0 -14 6 0 6 -5 11 -10 11
-6 0 -3 -11 6 -25 9 -14 24 -25 33 -25 10 0 26 -7 37 -15 10 -8 27 -15 37 -15
31 0 57 -19 50 -36 -6 -16 -14 -16 -135 2 -39 6 -53 -8 -21 -21 54 -20 407
-85 518 -95 72 -6 149 -15 172 -21 26 -5 51 -5 66 0 14 6 27 7 30 4 3 -3 95
-7 204 -10 188 -4 318 -13 445 -31 32 -4 119 -5 195 -2 76 3 172 2 213 -2 75
-8 464 -8 488 0 7 2 12 22 12 46 1 65 28 109 110 176 41 33 80 64 85 68 63 46
118 82 153 100 97 50 398 321 388 348 -3 9 2 14 14 14 27 0 25 18 -2 22 -16 2
-22 9 -20 21 2 9 -4 20 -12 23 -12 5 -12 10 4 37 10 18 15 40 11 49 -5 15 -8
13 -19 -11z"/>
<path d="M5609 3492 c-57 -36 -122 -62 -157 -62 -15 0 -40 -7 -57 -16 -37 -19
-54 -24 -130 -31 -33 -3 -62 -10 -65 -14 -5 -8 -76 -13 -121 -10 -23 1 -34 33
-14 43 8 5 15 18 15 29 0 16 -4 19 -22 14 -13 -4 -31 -9 -42 -12 -13 -3 -16
-1 -11 7 4 7 -4 6 -23 -4 -32 -16 -42 -34 -42 -71 0 -21 3 -23 34 -18 28 4 35
2 40 -15 6 -18 11 -19 52 -10 30 7 59 7 86 0 31 -8 51 -7 82 3 23 7 86 21 141
30 129 21 259 72 263 103 2 12 10 22 18 22 15 0 19 25 5 34 -4 3 -28 -7 -52
-22z"/>
<path d="M4949 3292 c-12 -13 -15 -28 -10 -62 l6 -45 45 -1 c25 -1 71 4 103
11 36 7 79 9 110 4 29 -4 205 -9 392 -12 288 -3 344 -6 365 -19 50 -32 133
-42 226 -28 48 7 99 16 113 20 l26 8 -27 1 c-29 1 -45 16 -28 26 18 11 118 25
218 30 51 3 104 10 119 16 14 5 28 7 31 5 11 -12 42 17 42 39 0 21 -5 25 -29
25 -17 0 -33 -4 -36 -10 -8 -13 -81 -11 -121 2 -23 8 -54 7 -125 -6 -146 -27
-207 -36 -298 -41 -46 -3 -104 -10 -129 -16 -35 -8 -49 -7 -67 5 -24 16 -58
19 -210 17 -49 -1 -99 3 -110 8 -63 29 -114 42 -131 33 -11 -5 -39 -13 -62
-17 -24 -4 -78 -20 -120 -35 -62 -22 -91 -27 -147 -25 -38 2 -85 4 -102 4 -40
1 -43 22 -8 45 14 9 25 21 25 26 0 16 -44 10 -61 -8z"/>
<path d="M5600 3280 c0 -6 7 -10 15 -10 8 0 15 2 15 4 0 2 -7 6 -15 10 -8 3
-15 1 -15 -4z"/>
<path d="M5455 2753 c-58 -7 -120 -25 -135 -38 -9 -8 -56 -23 -105 -34 -50
-11 -110 -29 -135 -39 -25 -11 -79 -23 -120 -26 -98 -9 -162 -24 -229 -53 -41
-19 -85 -27 -176 -34 -176 -14 -416 -39 -525 -54 -188 -27 -522 -38 -757 -25
-226 12 -263 15 -548 48 -93 11 -231 23 -305 27 -147 7 -178 12 -260 45 -30
12 -107 33 -170 46 -63 13 -126 28 -140 33 -14 5 -61 17 -105 27 -44 9 -84 21
-90 26 -5 4 -19 8 -31 8 -13 0 -26 5 -29 10 -3 6 -17 10 -30 10 -21 0 -23 -3
-18 -42 3 -24 11 -56 19 -71 12 -27 11 -30 -16 -57 -35 -35 -37 -43 -9 -61 17
-12 19 -20 13 -56 -6 -42 -34 -62 -34 -25 0 13 -6 11 -25 -12 -19 -22 -23 -35
-17 -55 10 -37 6 -105 -7 -109 -14 -5 -14 -82 0 -82 5 0 2 -13 -8 -30 -12 -20
-23 -28 -34 -25 -9 3 -24 -1 -32 -10 -9 -8 -22 -15 -29 -15 -8 0 -9 -3 -3 -8
25 -17 13 -48 -28 -74 -23 -14 -51 -28 -62 -30 -11 -2 -19 -10 -17 -17 1 -6
-4 -22 -13 -34 -10 -14 -15 -17 -15 -7 0 8 -8 -1 -19 -20 -14 -27 -25 -35 -47
-36 -16 0 -43 -8 -61 -17 -18 -9 -39 -17 -47 -17 -8 0 -31 -10 -51 -22 -21
-11 -47 -22 -59 -23 -82 -7 -146 -19 -146 -27 0 -5 -19 -8 -43 -8 -23 1 -94
-8 -157 -20 -63 -11 -130 -23 -147 -26 -38 -7 -38 -7 -16 -40 12 -19 13 -28 5
-33 -9 -5 -7 -13 7 -28 17 -17 32 -20 116 -21 78 -1 97 2 102 14 8 21 53 10
74 -18 16 -21 18 -21 43 -5 32 22 136 24 136 3 0 -7 -17 -22 -37 -31 -36 -17
-37 -18 -14 -27 15 -5 28 -4 37 3 8 6 24 9 37 7 20 -4 23 -1 19 17 -3 19 0 21
31 17 19 -2 44 1 55 7 14 7 23 8 27 1 12 -19 40 -10 57 20 9 17 13 30 7 30 -6
0 -7 5 -4 10 3 5 15 10 25 10 21 0 80 46 80 62 0 6 21 35 46 65 44 51 46 55
34 84 -12 27 -11 32 14 58 14 15 26 33 26 39 0 7 8 16 18 19 9 4 60 32 112 63
159 93 264 140 316 140 27 0 34 -4 34 -20 0 -17 7 -20 40 -20 41 0 90 -17 90
-32 0 -4 -7 -8 -15 -8 -8 0 -19 -9 -25 -19 -11 -22 2 -36 35 -36 13 0 23 -10
30 -30 5 -16 13 -32 16 -35 4 -3 17 -13 31 -23 19 -15 23 -26 20 -49 l-5 -30
54 3 54 3 -3 -31 c-4 -36 15 -51 75 -59 35 -4 59 -14 35 -14 -22 0 -12 -19 18
-35 27 -14 30 -14 30 0 0 22 21 18 27 -5 3 -11 9 -20 13 -20 4 0 13 -14 20
-31 l13 -30 61 6 c70 8 80 1 88 -55 4 -25 0 -43 -14 -62 -11 -16 -15 -28 -10
-28 6 0 12 5 14 10 2 6 26 13 53 16 28 2 75 9 106 15 59 12 93 4 95 -23 0 -7
2 -23 2 -34 2 -16 7 -20 25 -17 13 3 48 -1 78 -7 52 -11 159 -28 207 -32 25
-2 29 -13 7 -22 -18 -7 -20 -46 -2 -47 57 -3 163 4 165 12 4 10 42 12 66 3 8
-3 12 -12 9 -19 -11 -31 10 -37 33 -9 l24 29 19 -22 c18 -21 29 -23 170 -28
l152 -5 20 35 c18 30 25 34 47 28 15 -3 30 -10 33 -15 8 -12 21 21 13 33 -8
13 43 30 71 23 12 -3 26 -1 29 5 9 15 42 14 66 -1 16 -10 25 -10 47 4 16 9 61
26 101 37 39 12 72 26 72 31 0 6 8 10 18 11 11 1 8 4 -8 8 -20 6 -13 9 36 15
49 6 68 4 93 -9 18 -9 40 -13 51 -10 26 8 34 35 13 50 -19 14 -15 16 56 30 21
5 35 14 38 26 3 10 15 20 27 21 11 1 32 2 46 3 14 1 35 2 48 3 15 1 22 8 22
23 0 12 11 30 25 41 17 13 24 26 20 38 -5 16 -2 18 27 14 33 -6 94 17 81 29
-9 10 58 69 87 77 14 3 29 16 35 28 5 12 18 22 27 22 10 0 18 5 18 10 0 6 8
10 18 10 32 0 82 38 82 63 0 16 9 28 28 37 22 11 24 14 10 17 -24 6 -23 23 1
23 11 0 23 9 26 20 3 11 13 27 21 35 14 13 14 17 0 31 -22 21 -20 33 7 38 12
3 35 7 50 11 18 3 45 -2 74 -15 25 -11 53 -20 63 -20 10 0 23 -6 29 -14 7 -8
24 -17 39 -21 25 -6 91 -33 139 -57 11 -6 35 -22 51 -37 17 -14 43 -34 57 -44
14 -11 31 -31 37 -45 7 -15 29 -48 50 -74 25 -31 38 -57 38 -77 0 -26 9 -36
58 -70 31 -22 77 -63 102 -92 95 -109 104 -116 143 -121 27 -3 37 0 37 10 0
12 14 14 77 9 45 -3 79 -11 84 -18 5 -8 29 -13 66 -13 128 1 229 7 248 15 11
4 46 15 78 24 60 16 71 30 36 43 -21 8 -21 9 5 25 14 9 30 17 36 17 5 0 10 13
10 29 0 34 -2 35 -155 51 -60 6 -148 17 -195 25 -47 8 -98 16 -115 19 -94 14
-160 35 -173 55 -8 11 -19 21 -24 21 -6 0 -24 6 -41 14 -18 8 -45 17 -60 20
-17 4 -31 16 -37 31 -6 15 -17 25 -29 25 -10 0 -24 7 -31 15 -7 8 -26 15 -42
15 -31 0 -50 26 -28 40 15 9 5 30 -16 30 -8 0 -14 3 -14 8 0 4 -10 12 -22 17
-16 7 -22 17 -20 32 2 14 -4 26 -18 33 -12 6 -20 19 -19 28 3 31 -1 55 -8 49
-10 -11 -34 30 -27 46 3 9 -2 20 -14 26 -22 12 -20 46 4 55 31 12 13 34 -36
46 -62 15 -69 24 -29 40 38 16 26 29 -30 35 -50 5 -73 28 -64 65 7 33 13 38
48 42 22 2 30 8 31 23 1 14 -6 21 -17 22 -11 1 -19 -2 -19 -8 0 -19 -29 -8
-36 14 -3 12 -15 30 -25 40 -11 10 -19 29 -19 42 0 14 -4 25 -10 25 -5 0 -10
5 -10 11 0 6 9 8 20 4 22 -7 26 5 8 23 -12 12 -16 12 -73 5z m-2715 -757 c0
-3 -4 -8 -10 -11 -5 -3 -10 -1 -10 4 0 6 5 11 10 11 6 0 10 -2 10 -4z m300
-86 c0 -5 -18 -10 -40 -10 -22 0 -40 5 -40 10 0 6 18 10 40 10 22 0 40 -4 40
-10z m777 -1 c7 -7 24 -12 39 -13 28 -1 54 -29 41 -43 -4 -4 -17 -1 -28 6 -19
11 -33 9 -35 -7 0 -4 -4 -15 -9 -25 -4 -11 -3 -28 4 -41 7 -12 11 -40 9 -62
-3 -37 -5 -39 -40 -42 -43 -4 -50 -17 -13 -26 22 -6 28 -16 24 -42 0 -4 5 -10
11 -14 6 -4 -15 -10 -47 -14 -37 -4 -59 -3 -61 4 -2 5 -10 10 -18 10 -8 0 -14
10 -14 25 0 28 -9 31 -30 13 -8 -7 -7 -4 3 8 20 25 23 41 3 25 -17 -14 -26 5
-26 55 0 24 5 34 15 34 8 0 15 5 15 11 0 6 8 8 18 5 10 -4 25 0 34 6 18 15 31
95 16 100 -5 2 -6 11 -3 21 8 20 74 24 92 6z m-647 -94 c5 -14 7 -33 4 -42 -5
-15 -4 -16 5 -3 7 10 11 11 11 3 0 -7 11 -13 25 -13 14 0 25 -6 25 -13 0 -21
37 -51 42 -36 6 17 38 4 38 -16 0 -11 -11 -15 -46 -15 -37 0 -45 -3 -40 -15 3
-9 0 -15 -9 -15 -7 0 -17 -5 -21 -12 -5 -7 -3 -8 6 -3 10 6 12 4 7 -9 -4 -10
-2 -27 4 -38 10 -18 9 -20 -5 -15 -9 4 -16 2 -16 -3 0 -6 -5 -10 -11 -10 -6 0
-8 9 -4 20 4 14 2 20 -8 20 -8 0 -17 -9 -20 -20 -7 -28 -55 -26 -89 5 -28 24
-35 45 -45 126 l-5 46 56 26 c31 15 59 34 62 42 9 22 23 18 34 -10z m734 19
c9 -3 16 -17 16 -30 0 -15 6 -24 15 -24 8 0 15 -4 15 -10 0 -5 -7 -10 -15 -10
-11 0 -15 -11 -15 -40 0 -30 -4 -40 -16 -40 -14 0 -16 9 -12 51 5 46 3 51 -19
60 -20 7 -22 12 -13 29 11 21 19 24 44 14z m263 -36 c-3 -8 -6 -5 -6 6 -1 11
2 17 5 13 3 -3 4 -12 1 -19z m-1432 -53 c0 -18 -52 -18 -59 0 -5 13 0 16 27
13 17 -2 32 -7 32 -13z m85 -35 c0 -5 -4 -10 -10 -10 -5 0 -10 5 -10 10 0 6 5
10 10 10 6 0 10 -4 10 -10z m642 -9 c8 -11 27 -21 43 -24 23 -3 20 -4 -13 -6
-24 0 -50 -8 -59 -16 -20 -20 -37 -14 -41 14 -7 46 44 69 70 32z m-572 -21
c13 -9 13 -11 1 -19 -14 -9 -20 -8 -58 5 -16 6 -16 7 2 14 27 12 37 11 55 0z
m70 -14 c0 -18 -30 -30 -44 -16 -7 7 -5 10 7 10 9 0 17 5 17 10 0 6 5 10 10
10 6 0 10 -6 10 -14z m969 -25 c11 -15 18 -31 14 -35 -3 -3 2 -6 13 -7 18 0
-26 -20 -88 -39 -25 -8 -28 -6 -28 16 0 16 6 24 17 24 14 0 14 2 -2 20 -20 23
-19 25 15 39 36 14 37 14 59 -18z m118 -7 c-3 -3 -12 -4 -19 -1 -8 3 -5 6 6 6
11 1 17 -2 13 -5z m-517 -44 c11 -8 9 -9 -12 -8 -16 1 -28 6 -28 10 0 11 22
10 40 -2z m-2510 -10 c3 -1 -6 -5 -18 -11 -25 -9 -42 -5 -42 12 0 8 32 7 60
-1z m2317 -6 c-3 -3 -12 -4 -19 -1 -8 3 -5 6 6 6 11 1 17 -2 13 -5z m400 -10
c-3 -3 -12 -4 -19 -1 -8 3 -5 6 6 6 11 1 17 -2 13 -5z"/>
<path d="M3690 1654 c0 -14 7 -32 15 -40 13 -14 17 -14 30 0 8 8 15 26 15 40
0 22 -4 26 -30 26 -26 0 -30 -4 -30 -26z"/>
<path d="M170 1697 c-22 -10 -10 -12 85 -15 60 -1 114 -7 119 -12 16 -16 25
-12 23 9 -1 17 -10 19 -72 20 -38 0 -83 3 -100 5 -16 3 -41 0 -55 -7z"/>
<path d="M1013 1533 c-19 -7 -16 -20 7 -26 15 -4 20 0 20 14 0 19 -5 21 -27
12z"/>
<path d="M6195 1531 c-17 -4 -25 -9 -19 -13 15 -10 112 -13 121 -5 3 4 -7 7
-23 7 -17 0 -34 4 -39 8 -6 5 -23 6 -40 3z"/>
<path d="M6728 1513 c7 -3 16 -2 19 1 4 3 -2 6 -13 5 -11 0 -14 -3 -6 -6z"/>
</g>
</svg>
